<svg width="251" height="64" viewBox="0 0 251 64" fill="none" xmlns="http://www.w3.org/2000/svg">
<path fill-rule="evenodd" clip-rule="evenodd" d="M99.1612 17.6905L97.5859 26.6247H92.1174C87.0156 26.6247 82.1528 30.7581 81.2515 35.8599L80.87 38.0314C79.9729 43.1333 83.3769 47.2668 88.4786 47.2668H93.0396C96.758 47.2668 100.3 44.2567 100.954 40.5384L105.155 16.7271L99.1612 17.6905ZM95.281 39.6957C95.0798 40.8444 94.0457 41.7793 92.8971 41.7793H90.1261C87.8331 41.7793 86.2988 39.9179 86.7012 37.6206L86.9401 36.2666C87.3468 33.9735 89.535 32.108 91.8281 32.108H96.619L95.281 39.6957ZM141.276 47.2677H146.952L150.54 26.9106H144.864L141.276 47.2677ZM141.464 29.5693L141.465 29.5667L141.465 29.5642C141.607 28.7582 141.75 27.9522 141.892 27.1462C136.068 25.6454 131.531 27.198 129.684 27.963C129.684 27.963 127.049 42.8998 126.277 47.2735H131.957C132.879 42.0463 133.801 36.8179 134.721 31.5907C135.574 31.4207 138.348 31.1546 141.037 31.9902C141.179 31.1832 141.322 30.3762 141.464 29.5693ZM118.872 26.6216H114.458C110.153 26.6216 106.049 30.1094 105.29 34.4147L104.397 39.4746C103.638 43.7799 106.51 47.2679 110.815 47.2679H120.214L121.178 41.7971H112.345C110.911 41.7971 109.951 40.6358 110.207 39.198L110.237 39.0261H124.477L125.29 34.4147C126.049 30.1094 123.177 26.6216 118.872 26.6216ZM119.593 33.9788L119.56 34.2722H111.092L111.138 34.0123C111.393 32.5786 112.702 31.3168 114.139 31.3168H117.447C118.868 31.3168 119.828 32.5576 119.593 33.9788ZM160.405 40.3379C162.982 35.7014 165.824 29.6181 167.008 26.9106H172.692C170.757 32.0551 166.323 40.8062 162.027 47.2677H156.347C154.376 41.1179 153.102 32.5491 152.859 26.9106H158.54C158.642 28.7499 159.466 35.572 160.405 40.3379Z" fill="#414652"/>
<path d="M188.823 18.558C193.163 18.558 196.495 19.328 198.819 20.868C201.143 22.38 202.305 24.872 202.305 28.344C202.305 31.844 201.129 34.378 198.777 35.946C196.425 37.486 193.065 38.256 188.697 38.256H186.639V48H180.087V19.314C181.515 19.034 183.027 18.838 184.623 18.726C186.219 18.614 187.619 18.558 188.823 18.558ZM189.243 24.144C188.767 24.144 188.291 24.158 187.815 24.186C187.367 24.214 186.975 24.242 186.639 24.27V32.67H188.697C190.965 32.67 192.673 32.362 193.821 31.746C194.969 31.13 195.543 29.982 195.543 28.302C195.543 27.49 195.389 26.818 195.081 26.286C194.801 25.754 194.381 25.334 193.821 25.026C193.289 24.69 192.631 24.466 191.847 24.354C191.063 24.214 190.195 24.144 189.243 24.144ZM222.488 26.538C222.488 27.602 222.278 28.624 221.858 29.604C221.438 30.584 220.892 31.536 220.22 32.46C219.548 33.356 218.792 34.224 217.952 35.064C217.112 35.904 216.286 36.702 215.474 37.458C215.054 37.85 214.592 38.298 214.088 38.802C213.612 39.278 213.15 39.768 212.702 40.272C212.254 40.776 211.848 41.252 211.484 41.7C211.148 42.12 210.938 42.47 210.854 42.75H223.37V48H203.966C203.91 47.692 203.882 47.3 203.882 46.824C203.882 46.348 203.882 46.012 203.882 45.816C203.882 44.472 204.092 43.24 204.512 42.12C204.96 41 205.534 39.964 206.234 39.012C206.934 38.032 207.718 37.122 208.586 36.282C209.482 35.442 210.364 34.602 211.232 33.762C211.904 33.118 212.534 32.516 213.122 31.956C213.71 31.368 214.228 30.808 214.676 30.276C215.124 29.716 215.474 29.17 215.726 28.638C215.978 28.078 216.104 27.518 216.104 26.958C216.104 25.726 215.754 24.858 215.054 24.354C214.354 23.85 213.486 23.598 212.45 23.598C211.694 23.598 210.98 23.724 210.308 23.976C209.664 24.2 209.062 24.48 208.502 24.816C207.97 25.124 207.508 25.446 207.116 25.782C206.724 26.09 206.43 26.342 206.234 26.538L203.126 22.17C204.358 21.022 205.786 20.084 207.41 19.356C209.062 18.6 210.826 18.222 212.702 18.222C214.41 18.222 215.88 18.418 217.112 18.81C218.344 19.202 219.352 19.762 220.136 20.49C220.948 21.19 221.536 22.058 221.9 23.094C222.292 24.102 222.488 25.25 222.488 26.538ZM235.523 18.558C239.863 18.558 243.195 19.328 245.519 20.868C247.843 22.38 249.005 24.872 249.005 28.344C249.005 31.844 247.829 34.378 245.477 35.946C243.125 37.486 239.765 38.256 235.397 38.256H233.339V48H226.787V19.314C228.215 19.034 229.727 18.838 231.323 18.726C232.919 18.614 234.319 18.558 235.523 18.558ZM235.943 24.144C235.467 24.144 234.991 24.158 234.515 24.186C234.067 24.214 233.675 24.242 233.339 24.27V32.67H235.397C237.665 32.67 239.373 32.362 240.521 31.746C241.669 31.13 242.243 29.982 242.243 28.302C242.243 27.49 242.089 26.818 241.781 26.286C241.501 25.754 241.081 25.334 240.521 25.026C239.989 24.69 239.331 24.466 238.547 24.354C237.763 24.214 236.895 24.144 235.943 24.144Z" fill="#414652"/>
<g clip-path="url(#clip0_1228_13156)">
<rect width="64" height="64" fill="#E03640"/>
<path d="M61.3349 2.66699L-2.6651 12.7686L-14.3984 66.667H49.6016L61.3349 2.66699Z" fill="#FF444F"/>
<g filter="url(#filter0_d_1228_13156)">
<path d="M16.6669 23.774C19.3536 23.774 21.4162 24.2507 22.8549 25.204C24.2936 26.14 25.0129 27.6827 25.0129 29.832C25.0129 31.9987 24.2849 33.5673 22.8289 34.538C21.3729 35.4913 19.2929 35.968 16.5889 35.968H15.3149V42H11.2589V24.242C12.1429 24.0687 13.0789 23.9473 14.0669 23.878C15.0549 23.8087 15.9216 23.774 16.6669 23.774ZM16.9269 27.232C16.6322 27.232 16.3376 27.2407 16.0429 27.258C15.7656 27.2753 15.5229 27.2927 15.3149 27.31V32.51H16.5889C17.9929 32.51 19.0502 32.3193 19.7609 31.938C20.4716 31.5567 20.8269 30.846 20.8269 29.806C20.8269 29.3033 20.7316 28.8873 20.5409 28.558C20.3676 28.2287 20.1076 27.9687 19.7609 27.778C19.4316 27.57 19.0242 27.4313 18.5389 27.362C18.0536 27.2753 17.5162 27.232 16.9269 27.232ZM37.5073 28.714C37.5073 29.3727 37.3773 30.0053 37.1173 30.612C36.8573 31.2187 36.5193 31.808 36.1033 32.38C35.6873 32.9347 35.2193 33.472 34.6993 33.992C34.1793 34.512 33.668 35.006 33.1653 35.474C32.9053 35.7167 32.6193 35.994 32.3073 36.306C32.0127 36.6007 31.7267 36.904 31.4493 37.216C31.172 37.528 30.9207 37.8227 30.6953 38.1C30.4873 38.36 30.3573 38.5767 30.3053 38.75H38.0533V42H26.0413C26.0067 41.8093 25.9893 41.5667 25.9893 41.272C25.9893 40.9773 25.9893 40.7693 25.9893 40.648C25.9893 39.816 26.1193 39.0533 26.3793 38.36C26.6567 37.6667 27.012 37.0253 27.4453 36.436C27.8787 35.8293 28.364 35.266 28.9013 34.746C29.456 34.226 30.002 33.706 30.5393 33.186C30.9553 32.7873 31.3453 32.4147 31.7093 32.068C32.0733 31.704 32.394 31.3573 32.6713 31.028C32.9487 30.6813 33.1653 30.3433 33.3213 30.014C33.4773 29.6673 33.5553 29.3207 33.5553 28.974C33.5553 28.2113 33.3387 27.674 32.9053 27.362C32.472 27.05 31.9347 26.894 31.2933 26.894C30.8253 26.894 30.3833 26.972 29.9673 27.128C29.5687 27.2667 29.196 27.44 28.8493 27.648C28.52 27.8387 28.234 28.038 27.9913 28.246C27.7487 28.4367 27.5667 28.5927 27.4453 28.714L25.5213 26.01C26.284 25.2993 27.168 24.7187 28.1733 24.268C29.196 23.8 30.288 23.566 31.4493 23.566C32.5067 23.566 33.4167 23.6873 34.1793 23.93C34.942 24.1727 35.566 24.5193 36.0513 24.97C36.554 25.4033 36.918 25.9407 37.1433 26.582C37.386 27.206 37.5073 27.9167 37.5073 28.714ZM45.5767 23.774C48.2633 23.774 50.326 24.2507 51.7647 25.204C53.2033 26.14 53.9227 27.6827 53.9227 29.832C53.9227 31.9987 53.1947 33.5673 51.7387 34.538C50.2827 35.4913 48.2027 35.968 45.4987 35.968H44.2247V42H40.1687V24.242C41.0527 24.0687 41.9887 23.9473 42.9767 23.878C43.9647 23.8087 44.8313 23.774 45.5767 23.774ZM45.8367 27.232C45.542 27.232 45.2473 27.2407 44.9527 27.258C44.6753 27.2753 44.4327 27.2927 44.2247 27.31V32.51H45.4987C46.9027 32.51 47.96 32.3193 48.6707 31.938C49.3813 31.5567 49.7367 30.846 49.7367 29.806C49.7367 29.3033 49.6413 28.8873 49.4507 28.558C49.2773 28.2287 49.0173 27.9687 48.6707 27.778C48.3413 27.57 47.934 27.4313 47.4487 27.362C46.9633 27.2753 46.426 27.232 45.8367 27.232Z" fill="white"/>
</g>
</g>
<defs>
<filter id="filter0_d_1228_13156" x="9.25977" y="22.5659" width="46.6621" height="22.4341" filterUnits="userSpaceOnUse" color-interpolation-filters="sRGB">
<feFlood flood-opacity="0" result="BackgroundImageFix"/>
<feColorMatrix in="SourceAlpha" type="matrix" values="0 0 0 0 0 0 0 0 0 0 0 0 0 0 0 0 0 0 127 0" result="hardAlpha"/>
<feOffset dy="1"/>
<feGaussianBlur stdDeviation="1"/>
<feColorMatrix type="matrix" values="0 0 0 0 0.054902 0 0 0 0 0.054902 0 0 0 0 0.054902 0 0 0 0.05 0"/>
<feBlend mode="normal" in2="BackgroundImageFix" result="effect1_dropShadow_1228_13156"/>
<feBlend mode="normal" in="SourceGraphic" in2="effect1_dropShadow_1228_13156" result="shape"/>
</filter>
<clipPath id="clip0_1228_13156">
<rect width="64" height="64" rx="12" fill="white"/>
</clipPath>
</defs>
</svg>
